
        <svg xmlns="http://www.w3.org/2000/svg" xmlns:xlink="http://www.w3.org/1999/xlink" version="1.1" width="178.8606937575432" 
        height="101.398276231266" viewBox="0 0 178.8606937575432 101.398276231266">
			
			<g transform="scale(8.943034687877143) translate(10, 10)">
				<defs id="SvgjsDefs1732"></defs><g id="SvgjsG1733" featureKey="nYIUkx-0" transform="matrix(0.0017977885427518695,0,0,0.0017977885427518695,-1.3182329478332975,-2.356900779547701)" fill="#1890ff"><defs xmlns="http://www.w3.org/2000/svg"></defs><g xmlns="http://www.w3.org/2000/svg"><path class="fil0" d="M1177 57249c-43,5 -86,3 -127,-6 -51,-11 -117,-38 -157,-71 -48,-36 -88,-83 -116,-138 -12,-24 -21,-46 -28,-71 -2,-6 -3,-13 -5,-19 -2,-8 -4,-16 -5,-24 -9,-51 -7,-101 3,-148 11,-51 38,-117 71,-157 36,-48 83,-88 138,-116 24,-12 46,-21 71,-28 6,-2 13,-3 19,-5l11 -2c2680,-554 5827,-1964 9131,-3906 -20,-47 -31,-99 -31,-154l0 -30057c0,-175 112,-323 268,-378 2531,-1111 6202,-2996 8683,-3810 82,-28 172,-28 254,0 838,275 1813,673 2833,1121l0 -13760c0,-175 112,-323 268,-378 2531,-1111 6202,-2996 8683,-3810 82,-28 172,-28 254,0 2481,814 6152,2699 8683,3810 156,54 268,203 268,378l0 11099c1397,-637 2766,-1226 3891,-1596 82,-28 172,-28 254,0 2604,855 6067,2662 8711,3822l0 0c141,61 239,202 239,365l53 35310c1948,925 3791,1599 5453,1942l11 2c6,1 13,3 19,5 25,7 48,16 71,28 55,28 102,68 138,116 34,40 60,106 71,157 10,48 11,98 3,148 -1,8 -3,16 -5,24 -1,6 -3,13 -5,19 -7,25 -16,48 -28,71 -28,55 -68,102 -116,138 -40,34 -106,60 -157,71 -41,9 -83,11 -127,6 -4570,-435 -10611,-3028 -16618,-6505 -4259,-2465 -8509,-5379 -12206,-8282 -3697,2903 -7946,5816 -12206,8282 -6007,3477 -12047,6070 -16618,6505zm24870 -32650c202,88 294,323 206,525 -88,202 -323,294 -525,206l-4378 -1922c-202,-88 -294,-323 -206,-525 88,-202 323,-294 525,-206l4378 1922zm0 5065c202,88 294,323 206,525 -88,202 -323,294 -525,206l-4378 -1922c-202,-88 -294,-323 -206,-525 88,-202 323,-294 525,-206l4378 1922zm11939 -21699c202,88 294,323 206,525 -88,202 -323,294 -525,206l-4378 -1922c-202,-88 -294,-323 -206,-525 88,-202 323,-294 525,-206l4378 1922zm0 5065c202,88 294,323 206,525 -88,202 -323,294 -525,206l-4378 -1922c-202,-88 -294,-323 -206,-525 88,-202 323,-294 525,-206l4378 1922zm-1382 5330l-3315 -1455c-202,-88 -294,-323 -206,-525 88,-202 323,-294 525,-206l3961 1739c641,-300 1308,-614 1979,-926l0 -11208 -7881 -3460 -23 14775c0,220 -178,398 -398,398 -220,0 -398,-178 -398,-398l23 -14774 -7879 3459 0 13858c1765,799 3596,1693 5050,2332 156,54 268,203 268,378l0 9750c0,221 -179,400 -400,400 -221,0 -400,-179 -400,-400l0 -9490 -7881 -3460 -26 16945c0,220 -178,398 -398,398 -220,0 -398,-178 -398,-398l26 -16944 -7879 3459 0 29490c1845,-1121 3730,-2398 5603,-3776 3559,-2617 7069,-5593 10171,-8550 -1151,-995 -2215,-1971 -3168,-2909 -157,-154 -159,-407 -5,-564 154,-157 407,-159 564,-5 957,942 2027,1923 3186,2923 742,-718 1458,-1434 2143,-2142 -1296,-1362 -2474,-2690 -3497,-3945 -139,-171 -113,-422 58,-561 171,-139 422,-113 561,58 1004,1232 2160,2536 3431,3873 1271,-1337 2427,-2641 3431,-3873 139,-171 390,-197 561,-58 171,139 197,390 58,561 -1023,1255 -2201,2583 -3497,3945 686,708 1402,1424 2143,2142 1159,-1000 2229,-1981 3186,-2923 157,-154 410,-152 564,5 154,157 152,410 -5,564 -953,938 -2017,1915 -3168,2909 3102,2957 6611,5933 10171,8550 3133,2304 6300,4327 9253,5810l-52 -34659 -7883 -3461 -33 21192c0,220 -178,398 -398,398 -220,0 -398,-178 -398,-398l33 -21191 -7879 3459 0 14014c0,221 -179,400 -400,400 -221,0 -400,-179 -400,-400l0 -5573 -1998 -877c-202,-88 -294,-323 -206,-525 88,-202 323,-294 525,-206l1679 737 0 -4194 -1998 -877c-202,-88 -294,-323 -206,-525 88,-202 323,-294 525,-206l1679 737 0 -2765c0,-175 112,-323 268,-378 332,-146 683,-305 1049,-473zm14637 2820c202,88 294,323 206,525 -88,202 -323,294 -525,206l-4378 -1922c-202,-88 -294,-323 -206,-525 88,-202 323,-294 525,-206l4378 1922zm0 5065c202,88 294,323 206,525 -88,202 -323,294 -525,206l-4378 -1922c-202,-88 -294,-323 -206,-525 88,-202 323,-294 525,-206l4378 1922zm0 5065c202,88 294,323 206,525 -88,202 -323,294 -525,206l-4378 -1922c-202,-88 -294,-323 -206,-525 88,-202 323,-294 525,-206l4378 1922zm0 5065c202,88 294,323 206,525 -88,202 -323,294 -525,206l-4378 -1922c-202,-88 -294,-323 -206,-525 88,-202 323,-294 525,-206l4378 1922zm0 5065c202,88 294,323 206,525 -88,202 -323,294 -525,206l-4378 -1922c-202,-88 -294,-323 -206,-525 88,-202 323,-294 525,-206l4378 1922zm-26976 10693l5875 -5875c156,-156 409,-156 566,0l5875 5875c156,156 156,409 0,566l-5875 5875c-156,156 -409,156 -566,0l-5875 -5875c-156,-156 -156,-409 0,-566zm6157 -5026l-5309 5309 5309 5309 5309 -5309 -5309 -5309zm13507 -7259c0,-220 178,-398 398,-398 220,0 398,178 398,398l-5 3493c0,220 -178,398 -398,398 -220,0 -398,-178 -398,-398l5 -3493zm-13086 -20082c0,-220 178,-398 398,-398 220,0 398,178 398,398l-2 1455c0,220 -178,398 -398,398 -220,0 -398,-178 -398,-398l2 -1455zm-7 4789c0,-220 178,-398 398,-398 220,0 398,178 398,398l-8 5094c0,220 -178,398 -398,398 -220,0 -398,-178 -398,-398l8 -5094zm-12033 13838c0,-220 178,-398 398,-398 220,0 398,178 398,398l-2 1058c0,220 -178,398 -398,398 -220,0 -398,-178 -398,-398l2 -1058zm-5 3492c0,-220 178,-398 398,-398 220,0 398,178 398,398l-3 2064c0,220 -178,398 -398,398 -220,0 -398,-178 -398,-398l3 -2064zm-1768 7079c-3005,2210 -6048,4166 -8917,5648 2945,-1141 6116,-2724 9284,-4558 4171,-2415 8331,-5260 11963,-8100 -697,-557 -1372,-1112 -2022,-1662 -3142,3000 -6700,6020 -10308,8673zm12972 -11315c-669,690 -1366,1387 -2087,2087 670,567 1367,1138 2087,1711 720,-573 1417,-1144 2087,-1711 -721,-700 -1418,-1397 -2087,-2087zm2665 2643c-650,551 -1325,1106 -2022,1662 3632,2840 7791,5686 11963,8100 3168,1834 6339,3417 9284,4558 -2870,-1482 -5912,-3439 -8917,-5648 -3607,-2652 -7166,-5672 -10308,-8673z" style="fill: #1890ff; fill-rule: nonzero;"></path></g></g><g id="SvgjsG1734" featureKey="PXhRQw-0" transform="matrix(2.3116937253596865,0,0,2.3116937253596865,123.61298370966911,24.215563402712604)" fill="#1890ff"><path d="M0.6 4 l2.1 0 l0.6 12.04 l0.2 0 l1.2 -12.04 l1.7 0 l1.2 12.04 l0.2 0 l0.6 -12.04 l2.1 0 l-1.4 16 l-2.4 0 l-1.14 -8.36 l-1.16 8.36 l-2.4 0 z M12.6 20 l0 -16 l4.6 0 l0 1.6 l-2.6 0 l0 5.2 l2.2 0 l0 1.6 l-2.2 0 l0 5.6 l2.6 0 l0 2 l-4.6 0 z M19.1 20 l0 -16 l2 0 l0 14 l2.6 0 l0 2 l-4.6 0 z M25.400000000000002 20 l0 -16 l2 0 l0 14 l2.6 0 l0 2 l-4.6 0 z M31.700000000000003 13.2 l0 -1.6 l4 0 l0 1.6 l-4 0 z M38.2 20 l0 -16 l3.24 0 c2.06 0 2.76 1.26 2.76 3.68 c0 2.18 -0.26 3.42 -0.88 4.02 l0 0.12 c0.52 0.18 0.68 1.12 0.88 3.46 l0.4 4.72 l-2 0 l-0.26 -4.72 c-0.14 -2.38 -0.5 -2.88 -1.1 -2.88 l-1.04 0 l0 7.6 l-2 0 z M40.2 10.8 l1.24 0 c0.7 0 0.9 -0.7 0.9 -3.12 c0 -1.58 -0.3 -2.08 -0.9 -2.08 l-1.24 0 l0 5.2 z M46.6 11.58 l0 -7.58 l2 0 l0 7.58 c0 5.78 0 6.62 1 6.62 s1 -0.84 1 -6.62 l0 -7.58 l2 0 l0 7.58 c0 6.4 0 8.62 -3 8.62 s-3 -2.22 -3 -8.62 z M55 20 l0 -16 l1.8 0 l2.62 9.8 l-0.02 -0.2 l0 -9.6 l2 0 l0 16 l-1.8 0 l-2.62 -8.8 l0.02 0.2 l0 8.6 l-2 0 z M68.8 20 l0 -16 l2 0 l0 6.8 l2 0 l0 -6.8 l2 0 l0 16 l-2 0 l0 -7.6 l-2 0 l0 7.6 l-2 0 z M77.1 11.58 c0 -5.58 0.12 -7.78 3.12 -7.78 s3.12 2.2 3.12 7.78 c0 6.4 -0.12 8.62 -3.12 8.62 s-3.12 -2.22 -3.12 -8.62 z M79.1 11.58 c0 5.78 0 6.62 1.12 6.62 s1.12 -0.84 1.12 -6.62 c0 -5.2 0 -6.18 -1.12 -6.18 s-1.12 0.98 -1.12 6.18 z M85.64 20 l0 -8.4 c0 -5.58 0 -7.78 3 -7.78 s3 2.2 3 7.78 l0 8.4 l-2 0 l0 -4.6 l-2 0 l0 4.6 l-2 0 z M87.64 13.8 l2 0 l0 -2.2 c0 -5.2 0 -6.18 -1 -6.18 s-1 0.98 -1 6.18 l0 2.2 z"></path></g>
			</g>
		</svg>
	